<svg version="1.2" xmlns="http://www.w3.org/2000/svg" viewBox="0 0 459 469" width="459" height="469">
	<title>TEZOS-PIZZA-M (3)-ai</title>
	<style>
		.s0 { fill: #cd2031 } 
		.s1 { fill: #ffffff } 
		.s2 { fill: #0d8342 } 
		.s3 { fill: #000000 } 
	</style>
	<g id="Capa 1">
		<g id="&lt;Group&gt;">
			<path id="&lt;Path&gt;" class="s0" d="m233.5 0.2c0 0-118.6-0.7-190.8 117.2-72.3 117.8 9.8 237.1 9.8 237.1 0 0 41.4 59.7 123.5 84.2 0 0-68.1-1.4-127.7-78.6-59.7-77.1-41.4-177.5-41.4-177.5 0 0-30.2 105.3 38.6 188.1 68.7 82.8 136.8 87 177.5 85.6 40.7-1.4 131.2-9.2 186.6-130.5 0 0 22.5-54.1-4.2-144.6l7.7-4.2c0 0 34.4 65.3 9.9 149.5-24.6 84.2-107.4 132.6-150.2 141.7l29.5-4.2c0 0 6.3 1.2 16.6-5.4 6.8-4.4 38.7-15.4 71.3-53 34.5-39.8 52.9-90.8 53.6-143.4 0.2-15.2-0.4-32.7-2.4-52.5 0 0 25.3 69.3-10.2 149.3 0 0-27.6 51.9-58.1 78.1 0 0 23.9-14 30.5-26.2 0 0 9.3-18.7 16.8-26.2 7.5-7.5 70.2-87.5 16.4-206.3-53.8-118.8-141.3-121.6-167.5-122.6-26.2-0.9-95.9 3.8-129.6 31.9 0 0 42.1-41.2 99.7-40.7 0 0-6.3-9.2-20.2-2.4l-12.6 2.4-13.1 2.8c0 0 30.9-18.4 84.4-12.8 35.3 3.7 68.8 17.2 97.6 38 21.1 15.2 48.6 37.4 64.1 59 0 0-26.1-63.1-127.7-97.3-101.7-34.2-196.5 39.7-212.4 61.2-15.9 21.6-39.8 57.6-45.9 84.7 0 0-1.4-9.8-5.1-10.3 0 0 8.9-47.7 57.5-92.1 48.7-44.5 82.4-52.9 82.4-52.9l-35.6 7c0 0 34.6-18.2 52.4-22.4 0 0-10.3-1-18.2 0.9 0 0 19.6-5.6 46.5-12.6z"/>
			<g id="&lt;Group&gt;">
				<path id="&lt;Compound Path&gt;" fill-rule="evenodd" class="s1" d="m296.7 399.4c-0.1 1.1-0.3 2.7-0.9 4.8-0.6 2-1.6 4.3-3.2 6.8-1.6 2.4-3.6 4.9-6.3 7.3-2.6 2.4-6.2 4.7-10.7 5.5-4.7 0.8-9.1-0.7-13-3.1-1.9-1.2-3.7-2.6-5.3-4.1q-0.7-0.6-1.2-1.2l-0.7-0.7-0.5-0.6c-0.8-1-1.4-2-2-3.1-2-4.3-2.5-9.1-2.7-13.6-0.2-2.2-0.4-4.4-0.5-6.8-0.1-2.3 0-4.8 0.8-7.4 0.4-1.2 1-2.5 1.9-3.6l0.7-0.9 0.1-0.2h0.1l0.1-0.1 0.1-0.1 0.3-0.3c0.3-0.3 0.9-0.8 1.4-1.3 2-1.5 4.2-2.6 6.4-3.4 2.2-0.9 4.4-1.4 6.6-1.7 2.2-0.3 4.3-0.4 6.7-0.1 4.8 0.8 8.3 3.4 10.7 6 1.2 1.3 2.3 2.7 3.2 3.9 1 1.2 2 2.4 2.8 3.5 1.7 2.3 3 4.5 3.7 6.4 0.8 1.9 1.2 3.6 1.3 4.7 0.1 0.5 0.1 1 0.1 1.3q0 0.4 0 0.4 0 0 0 0.4c0 0.3 0.1 0.7 0 1.3zm-1.9-1.7c0-0.1 0-0.6-0.1-1.5-0.1-1-0.4-2.4-1.2-4.1-0.8-1.6-2.2-3.5-4-5.3-1.9-1.9-4.3-3.9-7-5.5-2.7-1.7-5.5-3.3-8.4-3.7l-0.5-0.1c-0.2 0-0.5 0-0.7 0h-0.4q0 0-0.1 0h0.1c0.1 0 0 0 0 0h-0.2-0.6q-1.4 0.1-2.7 0.2c-1.8 0.3-3.7 0.7-5.4 1.2-1.8 0.6-3.5 1.4-5 2.4-0.3 0.2-0.6 0.4-1 0.8l-0.3 0.3h-0.1c0 0-0.1 0.1 0 0l-0.1 0.1-0.4 0.4c-0.5 0.6-0.9 1.3-1.2 2.1-1.3 3.3-1.5 7.9-1.7 12.4-0.2 4.4-0.6 8.9 1.3 12.5 0.5 1 1 1.7 1.7 2.4l0.6 0.6 0.5 0.5q0.6 0.5 1.2 1c1.6 1.2 3.4 2.2 5.2 3 1.8 0.7 3.7 1.2 5.4 1.4 1 0.1 1.5 0.2 2.6 0.1 0.8 0 1.6-0.1 2.4-0.3 3.1-0.6 5.9-2.4 8.5-4.2 2.5-1.8 4.8-3.8 6.5-5.7 1.7-1.9 3-3.7 3.7-5.4 0.8-1.7 1.1-3.2 1.2-4.1 0.1-0.4 0.1-0.9 0.1-1.1q0.1-0.4 0.1-0.4 0 0 0 0z"/>
				<path id="&lt;Path&gt;" class="s1" d="m272.5 377.5q0 0-0.1 0z"/>
				<path id="&lt;Path&gt;" class="s1" d="m294.8 397.7q0 0 0 0z"/>
				<path id="&lt;Path&gt;" class="s1" d="m257.2 382.4c0 0-0.1 0.1 0 0z"/>
				<path id="&lt;Path&gt;" class="s1" d="m192.8 404.5z"/>
				<path id="&lt;Path&gt;" class="s1" d="m195.5 384.6v0.1c0 0-0.1-0.1 0-0.1z"/>
				<path id="&lt;Compound Path&gt;" fill-rule="evenodd" class="s1" d="m202 388.6c0.4 1 0.7 2 0.8 3.2 0.3 2.4-0.5 4.4-1.5 5.8-0.5 0.8-1 1.4-1.5 2-0.4 0.6-0.9 1.3-1.3 1.8-0.9 1.1-1.8 1.9-2.6 2.6-0.8 0.6-1.6 0.9-2.1 1.1q-0.4 0.2-0.6 0.2-0.2 0.1-0.2 0.1 0 0-0.2 0.1c-0.1 0-0.3 0.1-0.6 0.1-0.6 0.1-1.4 0.2-2.4 0.2-1-0.1-2.3-0.3-3.6-0.7-1.4-0.5-2.9-1.2-4.3-2.1-1.5-1-3-2.4-3.9-4.5-1-2.1-0.8-4.5-0.2-6.6 0.4-1.1 0.8-2.1 1.4-3.1q0.2-0.3 0.4-0.7l0.2-0.4 0.3-0.3c0.3-0.5 0.7-0.9 1.2-1.3 1.8-1.5 4-2.3 6.2-3 1-0.3 2-0.7 3.1-1 1.2-0.4 2.3-0.6 3.7-0.6q1 0.1 2 0.5l0.4 0.2 0.2 0.1 0.1 0.1 0.2 0.1c0.2 0.1 0.5 0.3 0.7 0.5 1 0.8 1.8 1.7 2.5 2.6 0.7 1 1.2 2 1.6 3zm-2.2 3.5v-0.2c0-0.1 0-0.2-0.1-0.3v-0.2c0 0 0-0.1 0 0v-0.1l-0.1-0.3q-0.2-0.7-0.4-1.3-0.5-1.3-1.3-2.4c-0.5-0.8-1-1.5-1.7-2.1-0.2-0.1-0.3-0.3-0.5-0.4l-0.2-0.1v-0.1 0.1c0 0-0.1-0.1 0-0.1h-0.1l-0.2-0.1q-0.5-0.3-1.2-0.4c-1.7-0.2-3.9 0.3-6.1 0.7-2.1 0.5-4.3 0.9-5.8 2.2q-0.6 0.5-1 1.1l-0.2 0.3-0.1 0.4q-0.2 0.3-0.4 0.7c-0.4 0.9-0.6 1.9-0.8 2.8q-0.2 1.5 0 2.8c0.1 0.5 0.1 0.7 0.3 1.2 0.1 0.4 0.2 0.8 0.4 1.1 0.7 1.4 1.9 2.6 3.1 3.6 1.2 0.9 2.4 1.8 3.5 2.4 1.1 0.6 2.1 1 3 1.1 0.9 0.2 1.7 0.1 2.1 0.1 0.2 0 0.5-0.1 0.6-0.1q0.2 0 0.2 0c0 0 0.2-0.1 0.7-0.3 0.4-0.1 1.1-0.4 1.8-1 0.7-0.6 1.4-1.5 2-2.6 0.7-1.1 1.4-2.5 1.8-4 0.5-1.5 0.9-3 0.7-4.5zm-0.1-0.8v0.1q0-0.1 0-0.1z"/>
			</g>
			<g id="&lt;Group&gt;">
				<path id="&lt;Path&gt;" class="s1" d="m374.3 130c-4.2-1.4-10-5.9-10-5.9 0 0 0.4-8.8-1.4-10.5-1.9-1.6-18.5-21.7-35.7-19.6 0 0 8.5 0.2 14.6 4.2 6.1 4 18.7 14.7 18.7 17.8 0 3 0.2 9.8 1.9 10.9 1.2 0.9 6.6 4.2 9.1 5.6q1.2 0.8 2 2c3.4 5.4 17.2 27.2 17.4 31.7 0.3 5.2 7 1.7 4-4.6-3-6.4-16.4-30.2-20.6-31.6z"/>
				<path id="&lt;Compound Path&gt;" fill-rule="evenodd" class="s1" d="m428.4 170.2c0.5 3.7-6.7 7.5-18.9 13.3-2.5 1.2-5.6 2.7-7.3 3.7l-1.1 0.6-0.5 1c-0.3 0.5-0.9 0.7-1.4 0.7q0 0 0 0h-0.7c-13.3 2.5-159.3 53.6-169.8 59.5l-0.5 0.3c-0.7 0.5-1.2 0.5-1.8-0.1-0.4-0.4-0.4-0.8-0.4-1 0-0.2 0-0.6 0.3-0.9l0.3-0.3c5.7-8.1 76.9-145 81-155.9l0.2-0.6q0-0.3 0.1-0.5l0.3-0.5 0.2-0.6q0.1-0.7 0.4-1.7l0.1-0.8c3.7-17.1 9.4-37.2 21-39.8q0.1 0 0.3 0 0.2 0 0.4 0.1c17.2 4.8 86.5 52.6 92.1 101.2 0 0.4-0.1 0.8-0.5 1.3l-1.4 1.1-0.2 1.9c-0.2 3.5 1.3 12.3 7.3 17.1 0.3 0.3 0.5 0.6 0.5 0.9zm-2.9 1.5l-2.7-3.7c-4.4-5.9-5.5-13.6-4.7-17.6 0.1-0.4 0.2-0.9 0.3-1.2q0.2-0.6 0.5-1l0.8-1.4-0.2-1.6c-7.6-44.1-68.2-88-87.8-95.2l-1.7-0.7-1.7 0.9c-4.2 2.1-10.5 8.2-16.6 36.8-0.5 2-0.9 4-1.5 4.9l-0.4 0.8c-2.7 7.1-12.8 27.2-38.5 76.8-15.5 29.6-27 51.5-34.4 65l-5.6 10.2 10.8-4.2c14.6-5.7 38.6-14.3 71.2-25.8 50.2-17.5 74.3-25.4 83.3-27.4l1.1-0.2 0.8-0.8q0.8-0.7 2.4-1.6 0.1-0.1 0.2-0.1 0.7-0.4 1.6-0.9c1.6-0.8 3.5-1.7 5.7-2.8h0.1c3.3-1.6 9.4-4.5 13.1-6.8z"/>
				<g id="&lt;Group&gt;">
					<path id="&lt;Compound Path&gt;" fill-rule="evenodd" class="s0" d="m413.3 191c-2 1-4.5 2.2-6.2 3.1-1.8 2.3-4.5 3.7-7.5 3.8-14.1 3-155.4 52.4-166.6 58.3-1.6 1.2-3.6 1.8-5.6 1.8-2.7 0-5.1-1-7-2.9-1.8-1.8-2.9-4.3-2.9-6.9 0-2.3 0.8-4.5 2.3-6.3 6.2-9 74.9-141 79.8-153.4q0.3-1 0.7-2 0.1-0.5 0.2-1.1l0.2-0.8c4.5-20.8 11.2-42.5 27.3-46.2 1.6-0.3 3.3-0.3 4.8 0.1 21.4 6 92.1 55.5 98.3 108.5 0.2 2.5-0.5 5-2 7.1 0.3 2.6 1.6 6.7 4.1 8.7 2 1.6 3.2 3.8 3.6 6.3 1.3 10-9.1 15-23.5 21.9zm-11.1-3.8c1.7-1 4.8-2.5 7.3-3.7 12.2-5.8 19.4-9.6 18.9-13.3 0-0.3-0.2-0.6-0.5-0.9-6-4.8-7.5-13.6-7.3-17.1l0.2-1.9 1.4-1.1c0.4-0.5 0.5-0.9 0.5-1.3-5.6-48.6-74.9-96.4-92.1-101.2q-0.2-0.1-0.4-0.1-0.2 0-0.3 0c-11.6 2.6-17.3 22.7-21 39.8l-0.1 0.8q-0.3 1-0.4 1.7l-0.2 0.6-0.3 0.5q-0.1 0.2-0.1 0.5l-0.2 0.6c-4.1 10.9-75.3 147.8-81 155.9l-0.3 0.3c-0.3 0.3-0.3 0.7-0.3 0.9 0 0.2 0 0.6 0.4 1 0.6 0.6 1.1 0.6 1.8 0.1l0.5-0.3c10.5-5.9 156.5-57 169.8-59.5h0.7q0 0 0 0c0.5 0 1.1-0.2 1.4-0.7l0.5-1z"/>
					<path id="&lt;Path&gt;" class="s0" d="m314.9 148.2c0.5 1.2 1.5 2.1 2.4 2.9 0.9 0.7 1.9 1.4 2.8 1.9 0.9 0.5 1.7 0.8 2.4 0.9 0.8 0.1 1.3 0.1 1.7 0 0.2 0 0.4 0 0.5 0q0.1 0 0.1 0 0 0 0.6-0.2c0.3-0.1 0.9-0.4 1.4-0.9 0.6-0.4 1.1-1.1 1.7-2 0.5-0.9 1-2 1.4-3.2 0.3-1.2 0.7-2.5 0.6-3.6l-0.1-0.2c0-0.1 0-0.2 0-0.3l-0.1-0.1q0 0 0 0v-0.1l-0.1-0.2q-0.1-0.5-0.3-1-0.4-1-1-2-0.6-0.9-1.4-1.6c-0.1-0.1-0.2-0.2-0.4-0.4l-0.1-0.1h-0.1l-0.2-0.1q-0.4-0.2-0.9-0.3c-1.4-0.2-3.1 0.2-4.9 0.6-1.7 0.3-3.4 0.6-4.6 1.7q-0.5 0.4-0.8 0.9l-0.2 0.3-0.1 0.2q-0.1 0.3-0.2 0.6c-0.4 0.7-0.6 1.5-0.7 2.3q-0.2 1.1 0 2.2c0 0.3 0.1 0.6 0.2 1 0.1 0.2 0.2 0.6 0.4 0.8z"/>
					<path id="&lt;Compound Path&gt;" fill-rule="evenodd" class="s0" d="m419.4 170.5c-3.5 2.2-9.5 5-12.8 6.6-5.5 2.7-9 4.3-10.9 6.1-8.3 1.8-28.7 8.3-83.8 27.6-37.5 13.1-59 21-71.4 25.8 8.9-16.2 22.6-42.3 34.5-65.2 27.1-52.3 36.1-70.2 38.7-77.2 1.1-1.5 1.5-3.7 2.1-6.3 5.2-24.2 10.5-32 14.4-34 17.7 6.5 77.8 49.4 85.1 92q-0.5 0.8-0.9 1.9c-1.8 5.1-0.5 15.3 5 22.7zm-24.5-8.9c-3-6.4-16.4-30.2-20.6-31.6-4.2-1.4-10-5.9-10-5.9 0 0 0.4-8.8-1.4-10.5-1.9-1.6-18.5-21.7-35.7-19.6 0 0 8.5 0.2 14.6 4.2 6.1 4 18.7 14.7 18.7 17.8 0 3 0.2 9.8 1.9 10.9 1.2 0.9 6.6 4.2 9.1 5.6q1.2 0.8 2 2c3.4 5.4 17.2 27.2 17.4 31.7 0.3 5.2 7 1.7 4-4.6zm-81.9-12.5c0.7 1.6 1.9 2.8 3.1 3.6 1.2 0.7 2.3 1.3 3.4 1.6 1.1 0.4 2.1 0.6 2.9 0.6 0.9 0 1.5 0 2-0.1 0.2-0.1 0.3-0.1 0.4-0.1q0.2-0.1 0.2-0.1 0 0 0.2 0 0.1-0.1 0.4-0.2c0.5-0.2 1-0.5 1.7-0.9 0.7-0.5 1.4-1.2 2.1-2.1 0.3-0.4 0.7-0.9 1-1.4 0.4-0.5 0.8-1 1.2-1.6 0.8-1.2 1.4-2.8 1.3-4.7-0.1-0.9-0.4-1.7-0.7-2.5-0.4-0.8-0.8-1.6-1.3-2.4-0.5-0.8-1.2-1.5-2-2.1-0.2-0.1-0.4-0.3-0.6-0.4l-0.1-0.1h-0.1v-0.1h-0.1l-0.4-0.2q-0.8-0.3-1.6-0.4c-1 0-2 0.2-2.9 0.5-0.9 0.2-1.7 0.5-2.5 0.8-1.7 0.5-3.5 1.2-5 2.4q-0.5 0.5-0.9 1l-0.2 0.3-0.2 0.3q-0.2 0.3-0.4 0.6-0.6 1.2-1 2.4c-0.5 1.7-0.7 3.6 0.1 5.3z"/>
				</g>
				<path id="&lt;Path&gt;" class="s1" d="m401.1 184.6q-0.1 0-0.2 0.1 0.1-0.1 0.2-0.1z"/>
				<path id="&lt;Path&gt;" class="s1" d="m418.1 150.4c0.1-0.4 0.2-0.9 0.3-1.2q0.2-0.6 0.5-1-0.3 0.4-0.5 1c-0.1 0.3-0.2 0.8-0.3 1.2z"/>
				<path id="&lt;Path&gt;" class="s1" d="m408.4 180.9h0.1c-2.3 1.1-4.2 2-5.8 2.8 1.6-0.8 3.5-1.7 5.7-2.8z"/>
				<path id="&lt;Path&gt;" class="s1" d="m400.9 184.7q-1.6 0.9-2.4 1.6 0.8-0.7 2.4-1.6z"/>
				<path id="&lt;Path&gt;" class="s1" d="m402.7 183.7q-0.9 0.5-1.6 0.9 0.7-0.4 1.6-0.9z"/>
				<path id="&lt;Path&gt;" class="s1" d="m422.8 168c-4.4-5.9-5.5-13.6-4.7-17.6-0.8 4 0.3 11.7 4.7 17.6z"/>
				<path id="&lt;Compound Path&gt;" fill-rule="evenodd" class="s1" d="m422.8 168l2.7 3.7-3.9 2.4c-3.7 2.3-9.8 5.2-13.1 6.8-2.3 1.1-4.2 2-5.8 2.8q-0.9 0.5-1.6 0.9-0.1 0-0.2 0.1-1.6 0.9-2.4 1.6l-0.8 0.8-1.1 0.2c-9 2-33.1 9.9-83.3 27.4-32.6 11.5-56.6 20.1-71.2 25.8l-10.8 4.2 5.6-10.2c7.4-13.5 18.9-35.4 34.4-65 25.7-49.6 35.8-69.7 38.5-76.8l0.4-0.8c0.6-0.9 1-2.9 1.5-4.9 6.1-28.6 12.4-34.7 16.6-36.8l1.7-0.9 1.7 0.7c19.6 7.2 80.2 51.1 87.8 95.2l0.2 1.6-0.8 1.4q-0.3 0.4-0.5 1c-0.1 0.3-0.2 0.8-0.3 1.2-0.8 4 0.3 11.7 4.7 17.6zm-3.4 2.5c-5.5-7.4-6.8-17.6-5-22.7q0.4-1.1 0.9-1.9c-7.3-42.6-67.4-85.5-85.1-92-3.9 2-9.2 9.8-14.4 34-0.6 2.6-1 4.8-2.1 6.3-2.6 7-11.6 24.9-38.7 77.2-11.9 22.9-25.6 49-34.5 65.2 12.4-4.8 33.9-12.7 71.4-25.8 55.1-19.3 75.5-25.8 83.8-27.6 1.9-1.8 5.4-3.4 10.9-6.1 3.3-1.6 9.3-4.4 12.8-6.6z"/>
				<path id="&lt;Path&gt;" class="s1" d="m330.3 143.4q0 0 0 0z"/>
				<path id="&lt;Compound Path&gt;" fill-rule="evenodd" class="s1" d="m332.2 141.2c0.3 0.8 0.6 1.6 0.7 2.5 0.1 1.9-0.5 3.5-1.3 4.7-0.4 0.6-0.8 1.1-1.2 1.6-0.3 0.5-0.7 1-1 1.4-0.7 0.9-1.4 1.6-2.1 2.1-0.7 0.4-1.2 0.7-1.7 0.9q-0.3 0.1-0.4 0.2-0.2 0-0.2 0 0 0-0.2 0.1c-0.1 0-0.2 0-0.4 0.1-0.5 0.1-1.1 0.1-2 0.1-0.8 0-1.8-0.2-2.9-0.6-1.1-0.3-2.2-0.9-3.4-1.6-1.2-0.8-2.4-2-3.1-3.6-0.8-1.7-0.6-3.6-0.1-5.3q0.4-1.2 1-2.4 0.2-0.3 0.4-0.6l0.2-0.3 0.2-0.3q0.4-0.5 0.9-1c1.5-1.2 3.3-1.9 5-2.4 0.8-0.3 1.6-0.6 2.5-0.8 0.9-0.3 1.9-0.5 2.9-0.5q0.8 0.1 1.6 0.4l0.4 0.2h0.1v0.1h0.1l0.1 0.1c0.2 0.1 0.4 0.3 0.6 0.4 0.8 0.6 1.5 1.3 2 2.1 0.5 0.8 0.9 1.6 1.3 2.4zm-1.7 2.8l-0.1-0.2c0-0.1 0-0.2 0-0.3l-0.1-0.1q0 0 0 0 0 0 0 0v-0.1l-0.1-0.2q-0.1-0.5-0.3-1-0.4-1-1-2-0.6-0.9-1.4-1.6c-0.1-0.1-0.2-0.2-0.4-0.4l-0.1-0.1c0 0-0.1 0 0 0h-0.1l-0.2-0.1q-0.4-0.2-0.9-0.3c-1.4-0.2-3.1 0.2-4.9 0.6-1.7 0.3-3.4 0.6-4.6 1.7q-0.5 0.4-0.8 0.9l-0.2 0.3-0.1 0.2q-0.1 0.3-0.2 0.6c-0.4 0.7-0.6 1.5-0.7 2.3q-0.2 1.1 0 2.2c0 0.3 0.1 0.6 0.2 1 0.1 0.2 0.2 0.6 0.4 0.8 0.5 1.2 1.5 2.1 2.4 2.9 0.9 0.7 1.9 1.4 2.8 1.9 0.9 0.5 1.7 0.8 2.4 0.9 0.8 0.1 1.3 0.1 1.7 0 0.2 0 0.4 0 0.5 0q0.1 0 0.1 0 0 0 0.6-0.2c0.3-0.1 0.9-0.4 1.4-0.9 0.6-0.4 1.1-1.1 1.7-2 0.5-0.9 1-2 1.4-3.2 0.3-1.2 0.7-2.5 0.6-3.6z"/>
				<path id="&lt;Path&gt;" class="s1" d="m327 138c0 0-0.1 0 0 0z"/>
				<path id="&lt;Path&gt;" class="s1" d="m324.8 153.9z"/>
			</g>
			<g id="&lt;Group&gt;">
				<path id="&lt;Path&gt;" class="s2" d="m198 200.1q-1.1-1.8-2.4-3.5-1.4-1.7-3-3.3c-1.1-0.9-2.2-1.9-3.3-2.8-1.2-1-2.5-1.8-3.7-2.7-1.3-0.8-2.6-1.6-3.9-2.1q-1-0.5-2.1-0.8c-0.7-0.3-1.5-0.5-2.2-0.7-1.5-0.4-3-0.6-4.5-0.8-1.6-0.1-3.1-0.2-4.7-0.1-1.6 0-3.1 0.3-4.7 0.6-3.1 0.6-6.1 1.6-9 2.8q-4.4 1.9-8.4 4.4-2.5 1.5-4.9 3.3c0.2-0.1 0.3-0.1 0.5-0.2 1.4-0.2 2.9-0.2 4.4 0 1.4 0.1 2.8 0.6 4.1 1.1 1.3 0.5 2.5 1.1 3.6 1.8 1.2 0.7 2.3 1.5 3.3 2.2q1.5 1.1 3.2 2c2.2 1.2 4.7 2.1 7.1 2.8 1.3 0.3 2.6 0.5 3.9 0.7q2 0.3 4 0.4c2.7 0.2 5.4 0.3 8.1 0.2q4.2 0 8.3-0.5 2-0.2 4.1-0.5l3.9-0.6-0.7-1.8c-0.3-0.7-0.7-1.3-1-1.9z"/>
				<path id="&lt;Path&gt;" class="s2" d="m248.1 138.2q-7.1 0.3-14 1.6c-4.6 0.9-9.1 2.3-13.2 4.3-2.1 1-4.1 2.1-5.9 3.4-1.8 1.3-3.5 2.8-5.1 4.3-1.5 1.7-3 3.4-4.2 5.2-0.7 1-1.3 1.9-1.8 2.9q-0.8 1.5-1.5 3.1c-0.9 1.9-1.5 4.2-2.1 6.4-0.6 2.3-1.1 4.6-1.4 6.9-0.4 2.3-0.6 4.7-0.7 7q-0.2 3.5 0 7.1 0.3 3.5 1 7c0.3 1.1 0.6 2.3 0.9 3.4l1.1 3.2 5.1-2.7c1.7-0.9 3.5-2 5.2-3q5.1-3.1 9.8-6.7c3.1-2.3 6.1-4.9 8.9-7.6q2.1-2.1 4-4.3c1.3-1.4 2.6-2.9 3.6-4.4 2.1-3.1 3.9-6.5 5.1-10.2q1-2.7 1.5-5.6c0.4-2 0.8-4 1.4-6 0.5-2 1.2-4 2.2-5.8 0.9-1.9 2-3.7 3.4-5.3 1.4-1.5 3.1-2.9 5-3.8q0.3-0.2 0.6-0.3-4.4-0.3-8.9-0.1z"/>
				<path id="&lt;Path&gt;" class="s1" d="m262.4 138.8l0.1-1.9c-1.9 0.3-3.7 0.7-5.5 1.4q2.7 0.2 5.4 0.5z"/>
				<path id="&lt;Compound Path&gt;" fill-rule="evenodd" class="s1" d="m269 138.4l-6.4 0.4c-1.9 0.2-3.8 0.5-5.5 1.3-1.7 0.8-3.3 1.9-4.6 3.4-2.5 2.9-3.9 6.6-4.6 10.5-0.4 1.9-0.5 3.8-0.7 5.9q-0.2 3.1-0.9 6.2c-0.9 4.1-2.4 8.1-4.7 11.7-2.4 3.6-5.3 6.6-8.4 9.4-3 2.8-6.3 5.3-9.7 7.5-3.5 2.2-7.1 4.3-10.8 5.9-1.9 0.8-3.8 1.5-5.7 2.2-2 0.7-3.9 1.3-5.9 1.8l-0.2 0.1-0.9-1.7-0.2-1.2c-0.2-0.7-0.5-1.4-0.7-2.1-0.2-0.7-0.5-1.3-0.8-2-0.3-0.7-0.7-1.3-1.1-2q-0.4-0.5-0.8-1.1 0-0.1 0-0.2c-0.4-1.2-0.6-2.5-0.9-3.7q-0.7-3.6-0.9-7.4-0.2-3.7 0.1-7.5c0.1-2.5 0.5-4.9 0.9-7.4 0.5-2.4 1-4.9 2.1-7.4q0.6-1.8 1.5-3.5c0.6-1.2 1.3-2.3 1.9-3.4 1.4-2.2 3.1-4.2 4.9-6.1 1.9-1.8 3.8-3.6 6-4.9 2.1-1.5 4.4-2.6 6.8-3.7 4.7-2 9.6-3.3 14.5-4 5-0.7 9.9-0.8 14.9-0.5 4.9 0.4 9.7 0.9 14.6 2zm-6.5-1.4c-1.9 0.2-3.7 0.6-5.5 1.4q-4.4-0.3-8.9-0.1-7.1 0.3-14 1.6c-4.6 0.9-9.1 2.3-13.2 4.2-2.1 1.1-4.1 2.2-5.9 3.5-1.8 1.3-3.5 2.8-5.1 4.3-1.6 1.7-3 3.3-4.3 5.2-0.6 0.9-1.2 1.9-1.7 2.9q-0.8 1.5-1.5 3c-1 2-1.5 4.2-2.1 6.5-0.6 2.3-1.1 4.6-1.4 6.9-0.4 2.3-0.6 4.6-0.7 7q-0.2 3.5 0 7 0.3 3.6 1 7.1c0.3 1.1 0.6 2.3 0.9 3.4l1.1 3.2 5.1-2.7c1.7-1 3.5-2 5.2-3q5.1-3.1 9.7-6.7c3.2-2.4 6.2-5 9-7.7q2.1-2 4-4.2c1.3-1.4 2.5-2.9 3.6-4.4 2.1-3.1 3.9-6.6 5.1-10.2q1-2.8 1.5-5.6c0.4-2 0.8-4.1 1.4-6 0.5-2 1.2-4 2.2-5.9 0.9-1.8 1.9-3.6 3.4-5.2 1.4-1.6 3.1-2.9 5-3.8q0.3-0.2 0.6-0.3 2.7 0.2 5.4 0.5z"/>
				<path id="&lt;Path&gt;" class="s1" d="m138.5 196.5c0.9-0.7 1.8-1.4 2.7-2.1-1.3 0.2-2.5 0.7-3.6 1.3z"/>
				<path id="&lt;Compound Path&gt;" fill-rule="evenodd" class="s1" d="m199 201.3l1 1.7 0.1 1h-0.1q-1.9 0.8-4 1.3c-1.3 0.4-2.6 0.8-4 1.1-2.8 0.6-5.6 1-8.5 1.3-2.8 0.2-5.7 0.3-8.5 0.1-2.9-0.2-5.7-0.5-8.6-1.2-2.8-0.8-5.3-2.1-7.6-3.6q-1.6-1.2-3.1-2.5c-0.9-0.9-1.8-1.7-2.8-2.4-2-1.5-4.4-2.7-7-3.1-1.4-0.1-2.7-0.1-4 0.2-1.3 0.2-2.4 0.8-3.5 1.4l-3.7 2.1 2.8-2.9c2.2-2.3 4.6-4.3 7.2-6.2 2.5-1.9 5.3-3.7 8.3-5.2 3-1.4 6.3-2.6 9.7-3.4 1.7-0.4 3.5-0.7 5.3-0.8 1.8-0.2 3.6-0.1 5.4 0 1.8 0.2 3.5 0.5 5.2 1 0.9 0.3 1.7 0.5 2.5 0.9q1.2 0.4 2.4 1c1.6 0.7 2.9 1.7 4.2 2.6 1.3 1 2.5 1.9 3.7 3q1.7 1.6 3.2 3.4 1 1.2 1.8 2.5c0.4 1.1 0.7 2.2 1.2 3.3 0.4 1.1 0.9 2.3 1.4 3.4zm0.7 2.5l-0.7-1.8c-0.3-0.7-0.7-1.3-1-1.9q-1.1-1.8-2.4-3.5-1.4-1.7-3-3.3c-1.1-0.9-2.2-1.9-3.3-2.8-1.2-1-2.5-1.8-3.7-2.7-1.3-0.8-2.6-1.6-3.9-2.1q-1-0.5-2.1-0.8c-0.7-0.3-1.5-0.5-2.2-0.7-1.5-0.4-3-0.6-4.5-0.8-1.6-0.1-3.1-0.2-4.7-0.1-1.6 0-3.1 0.3-4.7 0.6-3.1 0.6-6.1 1.6-9 2.8q-4.4 1.9-8.4 4.4-2.5 1.5-4.9 3.3c-1.3 0.2-2.5 0.7-3.6 1.3l0.9 0.8c0.9-0.7 1.8-1.4 2.7-2.1 0.2-0.1 0.3-0.1 0.5-0.2 1.4-0.2 2.9-0.2 4.4 0 1.4 0.1 2.8 0.6 4.1 1.1 1.3 0.5 2.5 1.1 3.6 1.8 1.2 0.7 2.3 1.5 3.3 2.2q1.5 1.1 3.2 2c2.2 1.2 4.7 2.1 7.1 2.8 1.3 0.3 2.6 0.5 3.9 0.7q2 0.3 4 0.4c2.7 0.2 5.4 0.3 8.1 0.2q4.2 0 8.3-0.5 2-0.2 4.1-0.5z"/>
				<path id="&lt;Path&gt;" class="s1" d="m199.1 199.7c-0.2-0.7-0.5-1.3-0.8-2-0.3-0.7-0.7-1.3-1.1-2q-0.4-0.5-0.8-1.1c0.4 1.1 0.7 2.2 1.2 3.3 0.4 1.1 0.9 2.3 1.4 3.4l1 1.7-0.2-1.2c-0.2-0.7-0.5-1.4-0.7-2.1z"/>
			</g>
			<g id="&lt;Group&gt;">
				<g id="&lt;Group&gt;">
					<path id="&lt;Compound Path&gt;" fill-rule="evenodd" class="s1" d="m135.4 278.9c-6.3 5-13.3 7.9-20.8 8.9l-0.7 0.1q-2.3 0.3-4.5 0.3c-9.7 0-17.4-4.4-22.7-12.7-1.2 43-6.2 51.9-10.6 54.1-5.3 6.9-11.9 10.9-19.4 12.1l-2 0.3-1.9-0.9c-6.7-3.4-10.8-8.9-11.9-16-1.5-11.9 1.9-55.1 10.2-95.2q-0.8 0.3-1.6 0.6l-0.6 0.2-7.2 1.1c-7.1 1.1-14.8-1.2-22.9-6.8l-2.3-1.6-1.3-8.4c-0.5-3.7 0.1-10.6 10.6-15.8 5.8-2.9 14.3-5.2 26-7 3.1-0.5 16.4-4.4 70.5-25.2l0.6-0.2 7.8-1.2h0.5c4.4 0.1 7.8 2.9 8.5 7.1l0.1 0.9c0.8 5.1 1.4 8.7-47.9 38.5l-1 0.5-5.6 2.1c1 2.6 1 3.1 1.1 3.6l0.1 0.9c0.3 11.1 0.4 21.1 0.5 30.1 1.8-3.5 4.3-7.2 7.6-11.3 2.6-3.5 7.6-6.7 16.3-10.2l0.7-0.3 8-1 0.9 0.1c5.2 0.8 9.2 2.1 12.4 3.6 0.5-1.6 1.7-3.4 4.2-5l1.4-1 1.7-0.1c8.4-0.6 11.1-0.9 12-1l24.1-5c16-2 18.8 6.6 19.3 10.4q0.1 0.8 0.1 1.6 4.1-5.1 10.9-10.5l0.8-0.5c5-2.9 10-5 15.1-6.3l0.7-0.1c24.5-3.1 29.2 12 30 18.7l0.1 0.4v0.5c-0.6 31.7-17.6 40.5-31.8 42.3q-2.5 0.3-5 0.3c-7.7 0-14.1-2.5-19.1-7.4-2.2 5.2-7.3 10.6-18.8 12.1h-0.5l-18.3-0.1c-1.1 0.2-4.7 0.8-16.3 3.3l-3.4 0.7zm88.9-41.6c-5.5 4-6.9 8.1-7 11.4 3.2-1.9 5.5-6.8 7-11.4zm-80.1 8.5q0.2 2.9-0.4 5.5 2.4-2.3 5.3-4.8-2.6-0.2-4.9-0.7zm45.1-2.4c-2.6 3.4-6.1 7.4-10.8 12.4q1.5 0.3 3.2 0.7l8.4-1.6-0.9-6.4q-0.3-2.5 0.1-5.1z"/>
					<path id="&lt;Path&gt;" class="s1" d="m250 215l-0.2 0.7c-0.5 1.9-0.2 3.9 0.8 5.6 1.1 1.6 2.8 2.7 4.9 3.1l0.9 0.1q0.5 0.1 1.1 0.1 0.5 0 1.1-0.1c-0.8 2.8-0.9 5.4-0.6 7.8 0.5 3.7 2.6 8.9 10 12.8l0.8 0.4 0.9 0.2q1.5 0.4 2.8 0.7c-8 2.9-12.6 5.6-11.9 11.1l0.5 3.8 0.6 1.1c2 3.3 5.3 5.2 9.3 5.2q0.9 0 1.8-0.1l2.5-0.4 0.5-0.1c17.9-3.9 38.3-10.3 36.5-24.2l-0.2-1.2c-0.6-4.6-3.7-8.5-9.7-12l-0.9-0.5q-0.3-0.1-0.5-0.2 1.8 0.1 3.8 0.1l1.5 0.1 1.4-0.6c8.1-3.7 8.3-9.8 8-12.3l-0.4-2.7-1.5-1.5c-6-6.4-14.8-8.9-26.1-7.4l-7.8 1.6-0.9 0.3q-2.1 0.8-3.9 1.7c1.3-2.9 1.8-5.8 1.1-8.8-0.7-2.7-2.9-6.4-8.9-8.2l-0.5-0.1c-2.8-0.6-8.3-0.8-13.6 4.8-4.3 4.7-5.1 10.2-2.2 14.9 0 0.3 0.1 1.5-1 4.2z"/>
					<path id="&lt;Compound Path&gt;" fill-rule="evenodd" class="s1" d="m414 303.1l-0.5 4.3c-0.9 7.8-5.8 12.8-13.7 13.8l-4.8 0.6c-5.7 0.7-11.2-1.5-16.5-6.6-6.3 5.7-12.2 8.9-17.9 9.6l-0.6 0.1h-0.7c-7.4-0.5-12.8-2-16.7-4.1-3 4.7-8.6 8.8-18.9 10.1l-0.5 0.1-20.4-0.2c-1.2 0.2-5.2 1-18.5 3.7l-3.3 0.7-2.8-2.6c-3.3 2.9-8.2 5.2-15.5 6.2h-0.5l-20.5-0.1c-1.2 0.2-5.2 0.9-18.4 3.7l-3.4 0.7-4.3-4.2c-0.9 4.7-4.6 6.6-7.2 6.9l-1.3 0.2q-1.1 0.1-2 0.1c-6.4 0-11.8-4.1-16.2-12.2-7.5 7.4-14.3 11.5-20.8 12.3l-9.2 1.2c-4 19.8-8.9 28.4-16.7 29.4q-0.8 0.1-1.6 0.1c-6.6 0-11.5-5.8-14.4-17.1l-0.1-0.8c-0.4-2.9 0.2-7.2 4.5-18.7-2.8-3-4.5-6.3-4.9-9.8-0.3-2.3 0.3-5.6 4.6-8.4l1.8-1.2 2.1 0.1q0.5 0 0.9 0c6.1-28.2 9-31.9 12.2-33.9l1.2-0.6 4.7-0.6c2.5 0 4.4 1.1 6 2.7 5.1-3.5 9.9-5.5 14.7-6.1l0.7-0.1 0.6 0.1c9.2 0.5 16 4 20 10 1.2-2.3 2.4-4.6 3.7-7.1l0.6-1.1 1.1-0.8q2.5-2 5.8-2.4l2.9-0.4 2.2 2q0.6 0.5 1.2 1c0.6-1.4 1.9-3 4-4.4l1.5-1 1.7-0.1c9.4-0.7 12.5-1 13.4-1.1l27.1-5.6c7.1-0.9 11.8 0.2 14.9 2 0.7-0.7 1.5-1.4 2.5-2.1l1.4-0.9 1.7-0.2c9.5-0.7 12.5-0.9 13.5-1l27-5.6c5.4-0.7 9.6-0.4 12.9 0.9 4.4 1.8 7.2 5.4 7.8 10q0.1 0.4 0.1 0.9l0.1-0.2c9.5-10.6 20.2-16.7 31.9-18.2l1.2-0.2 8.2 2c2.4-2 4.4-2.9 6.4-3.2 3.4-0.4 9.4 0.5 12.1 11.1l0.4 1.4-0.3 1.5c-2.8 15.1-3 21.5-2.8 24.2 0.6 0.7 2.9 3 10.7 7.1zm-193.3-0.1l-0.2 1c-0.8 4.3-1.5 8-2.1 11.2 3.2-4.2 7.7-8.6 13.6-13.3q-2.8-0.1-5.1-0.5c-2.7-0.4-4.9-1-6.7-1.9zm55.3 9.8c3.1-5.8 8.7-12 17-18.7q-2.7-0.1-5-0.5c-3.8-0.5-6.6-1.6-8.6-2.9-2.3 4.7-7.4 11.6-18.1 22.8q2.2 0.5 5 1.1zm56.9-7l-0.5-3.5q-0.3-4.2 1.1-9.1c-2.8 3.4-6.4 7.6-11.2 12.6q2.2 0.4 5 1.1zm39-19.8c-5.8 3.4-8.6 7-8.3 10.8 3.7-0.9 6.5-4.5 8.3-10.8zm-207.6 31.8q2.4-2.7 4.2-6.5v-0.3c-1 0.9-2.5 3-4.2 6.8z"/>
				</g>
				<g id="&lt;Group&gt;">
					<path id="&lt;Compound Path&gt;" class="s3" d="m124.6 173.1l6.5-1q1.9 0 2.2 1.5l0.1 1q0.7 4.4-44.9 31.9l-8.1 3.2-3.8 0.6q3.3 8.2 3.4 9c1.5 56.6-0.6 103.6-7.8 104.7q-6.9 9.8-16.5 11.3-7.2-3.7-8.4-11.2c-1.3-10.3 1.9-54.6 10.9-96.6q1.5-0.2 3.4-9.1l-0.9 0.1q-3.4 2.1-13.5 5.9l-6.5 1q-8.2 1.3-18.2-5.7l-0.9-5.7q-1.6-10.3 31.2-15.4 9-1.4 71.8-25.5z"/>
					<g id="&lt;Group&gt;">
						<path id="&lt;Compound Path&gt;" fill-rule="evenodd" class="s3" d="m113.3 233.8l6.2-0.8q16.9 2.5 18.1 12.3l0.1 0.6q1.5 11.6-22.3 18.8l-8.1 1q1.9 3.8 5.7 5l6.2-0.8q4.2-0.5 14-4.4 3.3 0.9 3.6 3.4-10.1 10.8-23.1 12.5l-0.6 0.1q-14.6 1.8-21.7-10.6l-1.1-8.7q-1-7.6 9.5-20.2 2.5-3.7 13.5-8.2zm-6.5 23.1q0.6-0.1 0.6 0.5 9-1.1 16-9l-0.1-1.2q-0.9-1.8-4-1.4l-1.9 0.2q-6.9 0.9-10.6 10.9z"/>
						<path id="&lt;Compound Path&gt;" class="s3" d="m177.2 224.6q11.2-1.5 12 4.7 0.8 6.3-23.3 30.2l0.1 0.6q1.7-0.2 15.5 3.1l9.9-1.9 0.8 1.2q-1.8 9-14.5 10.6l-18.3-0.1q-2 0.2-17.3 3.4l-2.8-2.8-0.1-0.5q-1.4-11.1 22.9-28.3l5.6-5.7q-26.8 3.4-27.7-4.1-0.6 0.1-0.9-1.7l-0.1-0.7q-0.1-0.9 1.7-2.1 10.8-0.8 12.5-1z"/>
						<path id="&lt;Compound Path&gt;" fill-rule="evenodd" class="s3" d="m224 219.1q20.8-2.6 22.8 13.1-0.6 32.7-26.1 36-17.3 2.2-24.1-13.5l-0.9-7q-1.3-10.1 14.9-23 6.7-3.9 13.4-5.6zm-13 33.1l0.1 1.2q0.2 1.1 4.8 2.6 9.9-1.3 15-17.9l0.2-3.9q-0.7-5.6-5.8-5-16.2 8.6-14.3 23z"/>
						<path id="&lt;Compound Path&gt;" class="s3" d="m265.4 197.4q10.6 3.1-3.2 17.2-4.4 3.6-4.8 3.5l-0.9-0.1q-0.6-0.1-0.5-0.6 2.7-6.7 0.5-10-2.1-3.2 1.5-7 3.5-3.8 7.4-3z"/>
						<path id="&lt;Compound Path&gt;" class="s3" d="m288.6 211q13.7-1.8 20.6 5.4v0.7q0.5 3.3-4.2 5.4-7.5-0.2-11.8 0.3-1.9 0.3-7.6 4.1l0.3 1.9q2.9 2.4 13.2 6.3 6.1 3.7 6.6 7.3l0.1 1.2q1.3 9.9-31.4 17.1l-2.4 0.3q-3.3 0.5-4.6-1.8l-0.3-2.5q-0.3-1.7 12.9-6 7.9-3.4 8.6-5.5l-0.1-0.6q-0.4-1.5-17.4-5.2-6-3.1-6.6-7.9-1.6-12 16.8-18.9z"/>
					</g>
					<g id="&lt;Group&gt;">
						<path id="&lt;Compound Path&gt;" fill-rule="evenodd" class="s3" d="m174.8 288.9q16.1 1 17.9 15l0.1 1.3q-0.3 12.6-6.4 22.2-10.9 11.3-19.1 12.4l-10.4 1.3-3.4-0.2q-5 28.5-12.1 29.4-5.6 0.8-8.9-12.1-0.5-3.5 5-18l-0.3-2.6q-4.5-3.8-5.1-8-0.1-0.9 1.8-2.2 3.6 0.2 5.9-0.1h0.6q6.8-32.5 10.2-34.6l2.6-0.3q1.5 0 4.8 5.4 9-7.9 16.8-8.9zm-19.5 39.8l6.5-0.9q8.4-4.4 13.3-15.6l-0.7-5.3q-2.1-3.7-5.7-3.2-6.8 0.9-12 15.5-2.1 4.2-1.4 9.5z"/>
						<path id="&lt;Compound Path&gt;" class="s3" d="m207.2 287.5q5.6 5 6.1 9l0.8 6.2q-5.5 28.6-4.9 32.9 0.5 3.5-1.6 3.8l-1.4 0.2q-8.5 1.1-14.6-15.7 0.7-12.8 13-35.4 1.1-0.8 2.6-1z"/>
						<path id="&lt;Compound Path&gt;" class="s3" d="m261.2 278q12.6-1.7 13.5 5.3 0.9 7-26.1 33.8l0.1 0.7q1.9-0.3 17.4 3.4l11-2.1 0.9 1.3q-1.9 10.1-16.2 12l-20.5-0.2q-2.3 0.3-19.3 3.8l-3.2-3.1-0.1-0.6q-1.6-12.4 25.6-31.6l6.3-6.5q-30 3.9-31-4.5-0.7 0.1-1-2l-0.1-0.7q-0.1-1 1.9-2.4 12-0.8 14-1.1z"/>
						<path id="&lt;Compound Path&gt;" class="s3" d="m322.2 270.1q12.6-1.6 13.5 5.4 0.9 6.9-26.1 33.7l0.1 0.7q1.9-0.2 17.4 3.5l11-2.2 0.9 1.3q-1.9 10.2-16.1 12l-20.6-0.2q-2.2 0.3-19.3 3.9l-3.2-3.1-0.1-0.7q-1.6-12.4 25.6-31.6l6.3-6.4q-29.9 3.8-31-4.6-0.7 0.1-1-1.9l-0.1-0.8q-0.1-1 1.9-2.3 12.1-0.9 14-1.1z"/>
						<path id="&lt;Compound Path&gt;" fill-rule="evenodd" class="s3" d="m375 263.5l9.4 2.3 1.3-0.2q3.6-3.3 5.2-3.5 3.2-0.4 5 6.4-3.8 19.9-2.9 26.8 0.6 4.3 14 11.4-0.7 7.1-8 8l-4.8 0.7q-7.4 0.9-15.1-9.3l-0.7 0.1q-10.4 11.1-18.6 12.2-19-1.2-20.3-11.3l-0.7-5.5q-0.6-8.3 8.4-22 12.7-14.1 27.8-16.1zm-17.9 34.4l0.1 0.6q0.5 3.7 4.1 5.1l2.1-0.3q13.4-1.7 16.4-24.4l-0.2-1.4-1.5-0.5-4.1 0.6q-18.5 8-16.9 20.3z"/>
					</g>
				</g>
			</g>
		</g>
	</g>
</svg>